# xmcd
#
# Track frame offsets:
#	150
#	20573
#	35010
#	50297
#	66412
#	77211
#	90177
#	104834
#	118380
#	136909
#	148891
#	164777
#
# Disc length: 2360 seconds
#
# Revision: 1
# Processed by: cddbd v1.5.2PL0 Copyright (c) Steve Scherf et al.
# Submitted via: audiograbber 1.83.01
#
DISCID=b509360c
DTITLE=Mike Lane - Country Volume 3 Mike Lane
DYEAR=2008
DGENRE=Country
TTITLE0=You Are My Life
TTITLE1=Phone Line To Heaven
TTITLE2=Reserved Just For You 
TTITLE3=Today I Started Loving You Again
TTITLE4=Walk Right Back
TTITLE5=If Heaven Ain´t A Lot Like Dixie
TTITLE6=The Poll Tax Song
TTITLE7=I Don´t Wanna Cry
TTITLE8=A Mothers Love´s A Bbessing
TTITLE9=A Room Full Of Roses
TTITLE10=Mr Lonely
TTITLE11=From The Cradle To The Grave
EXTD=
EXTT0=
EXTT1=
EXTT2=
EXTT3=
EXTT4=
EXTT5=
EXTT6=
EXTT7=
EXTT8=
EXTT9=
EXTT10=
EXTT11=
PLAYORDER=
